{"asset":{"version":"2.0","generator":"THREE.GLTFExporter"},"scenes":[{"name":"default","nodes":[0]}],"scene":0,"nodes":[{"mesh":0}],"bufferViews":[{"buffer":0,"byteOffset":0,"byteLength":60840,"target":34962,"byteStride":12},{"buffer":0,"byteOffset":60840,"byteLength":60840,"target":34962,"byteStride":12},{"buffer":0,"byteOffset":121680,"byteLength":40560,"target":34962,"byteStride":8},{"buffer":0,"byteOffset":162240,"byteLength":10140,"target":34963}],"buffers":[{"byteLength":172380,"uri":"data:application/octet-stream;base64,"}],"accessors":[{"bufferView":0,"componentType":5126,"count":5070,"max":[14,16,40],"min":[-2,-2,-8],"type":"VEC3"},{"bufferView":1,"componentType":5126,"count":5070,"max":[1,1,1],"min":[-1,-1,-1],"type":"VEC3"},{"bufferView":2,"componentType":5126,"count":5070,"max":[0.8125,0.25],"min":[0.0625,0.0625],"type":"VEC2"},{"bufferView":3,"componentType":5123,"count":5070,"max":[5069],"min":[0],"type":"SCALAR"}],"materials":[{"pbrMetallicRoughness":{"metallicFactor":0,"roughnessFactor":0.9,"baseColorTexture":{"index":0}},"alphaMode":"MASK","alphaCutoff":0.01,"name":"texture_1","extensions":{"KHR_materials_unlit":{}}}],"textures":[{"sampler":0,"source":0,"name":"texture_1"}],"samplers":[{"magFilter":9728,"minFilter":9728,"wrapS":33071,"wrapT":33071}],"images":[{"mimeType":"image/png","uri":"data:image/png;base64,"}],"meshes":[{"primitives":[{"mode":4,"attributes":{"POSITION":0,"NORMAL":1,"TEXCOORD_0":2},"indices":3,"material":0}]}],"extensionsUsed":["KHR_materials_unlit"]}