{"asset":{"version":"2.0","generator":"THREE.GLTFExporter"},"scenes":[{"name":"default","nodes":[0]}],"scene":0,"nodes":[{"mesh":0}],"bufferViews":[{"buffer":0,"byteOffset":0,"byteLength":9072,"target":34962,"byteStride":12},{"buffer":0,"byteOffset":9072,"byteLength":9072,"target":34962,"byteStride":12},{"buffer":0,"byteOffset":18144,"byteLength":6048,"target":34962,"byteStride":8},{"buffer":0,"byteOffset":24192,"byteLength":1512,"target":34963}],"buffers":[{"byteLength":25704,"uri":"data:application/octet-stream;base64,"}],"accessors":[{"bufferView":0,"componentType":5126,"count":756,"max":[2,2,0.125],"min":[-2,0,-0.25],"type":"VEC3"},{"bufferView":1,"componentType":5126,"count":756,"max":[1,1,1],"min":[-1,-1,-1],"type":"VEC3"},{"bufferView":2,"componentType":5126,"count":756,"max":[0.3125,0.2578125],"min":[0.1875,0.1875],"type":"VEC2"},{"bufferView":3,"componentType":5123,"count":756,"max":[755],"min":[0],"type":"SCALAR"}],"materials":[{"pbrMetallicRoughness":{"metallicFactor":0,"roughnessFactor":0.9,"baseColorTexture":{"index":0}},"alphaMode":"MASK","alphaCutoff":0.01,"name":"texture_1","extensions":{"KHR_materials_unlit":{}}}],"textures":[{"sampler":0,"source":0,"name":"texture_1"}],"samplers":[{"magFilter":9728,"minFilter":9728,"wrapS":33071,"wrapT":33071}],"images":[{"mimeType":"image/png","uri":"data:image/png;base64,"}],"meshes":[{"primitives":[{"mode":4,"attributes":{"POSITION":0,"NORMAL":1,"TEXCOORD_0":2},"indices":3,"material":0}]}],"extensionsUsed":["KHR_materials_unlit"]}